<?xml version="1.0" standalone="no"?>
<!DOCTYPE svg PUBLIC "-//W3C//DTD SVG 20010904//EN"
 "http://www.w3.org/TR/2001/REC-SVG-20010904/DTD/svg10.dtd">
<svg version="1.0" xmlns="http://www.w3.org/2000/svg"
 width="350.000000pt" height="350.000000pt" viewBox="0 0 350.000000 350.000000"
 preserveAspectRatio="xMidYMid meet">
<metadata>
Created by potrace 1.11, written by Peter Selinger 2001-2013
</metadata>
<g transform="translate(0.000000,350.000000) scale(0.100000,-0.100000)"
fill="#000000" stroke="none">
<path d="M1103 3408 c-21 -3 -50 -11 -65 -17 -43 -16 -110 -82 -130 -129 -21
-47 -26 -148 -9 -180 16 -30 14 -32 -22 -32 -141 0 -271 -125 -278 -270 -3
-42 8 -95 27 -132 l15 -28 -45 0 c-105 0 -215 -72 -260 -170 -36 -77 -33 -154
9 -252 5 -14 2 -18 -14 -18 -59 0 -170 -80 -204 -146 -32 -62 -39 -138 -21
-207 15 -58 35 -91 83 -135 43 -41 75 -58 123 -67 l37 -7 -19 -48 c-24 -61
-21 -158 7 -220 46 -102 147 -167 265 -169 l37 -1 -20 -45 c-28 -62 -24 -156
8 -224 44 -91 149 -161 244 -161 l38 0 -10 -32 c-49 -163 72 -328 240 -328
l42 0 -4 -46 c-10 -96 41 -185 128 -225 37 -17 74 -19 435 -19 250 0 409 4
434 11 91 25 159 130 150 231 l-4 46 32 0 c165 0 293 153 254 303 -7 27 -11
51 -8 54 3 3 19 5 36 5 86 0 192 70 236 156 32 62 35 189 7 242 l-18 32 38 1
c85 1 153 29 207 85 91 94 108 203 51 337 -6 13 -2 17 17 17 36 0 118 46 157
88 66 72 91 169 65 265 -26 101 -113 185 -210 203 -19 3 -34 7 -34 8 0 0 9 25
20 54 70 185 -67 377 -272 381 l-37 1 19 43 c24 53 26 137 3 203 -33 98 -153
184 -255 184 -21 0 -38 2 -38 4 0 2 6 21 13 42 17 50 11 118 -14 171 -27 56
-98 117 -153 133 -32 9 -208 12 -669 14 -344 0 -643 -2 -664 -6z m1309 -154
c55 -28 72 -102 36 -156 -26 -38 -56 -45 -223 -46 -149 -1 -150 -1 -172 -27
-40 -45 -23 -100 33 -111 16 -3 151 -6 299 -7 303 -2 313 -5 351 -74 39 -69
13 -157 -56 -194 -33 -18 -69 -19 -642 -19 l-607 0 -21 -22 c-25 -27 -26 -69
-1 -99 l19 -24 755 0 c724 0 756 -1 790 -20 89 -48 95 -183 10 -241 -26 -18
-59 -19 -576 -24 l-549 -5 -20 -25 c-14 -17 -18 -33 -14 -54 13 -64 -27 -61
684 -61 l648 -1 36 -22 c93 -57 89 -196 -8 -246 -36 -19 -58 -20 -396 -21
-393 0 -381 1 -394 -62 -5 -26 -1 -37 19 -57 l25 -25 248 -1 c220 0 253 -3
284 -19 96 -50 96 -201 0 -248 -31 -15 -77 -17 -388 -17 -348 -1 -354 -1 -378
-23 -28 -25 -31 -67 -8 -98 14 -19 30 -20 242 -25 198 -4 230 -7 254 -23 39
-27 59 -63 61 -110 2 -55 -17 -99 -56 -128 -31 -23 -37 -24 -251 -26 -211 -2
-220 -3 -242 -24 -31 -29 -31 -69 0 -98 21 -20 35 -23 103 -23 86 -1 121 -13
147 -53 34 -51 5 -133 -54 -153 -18 -7 -154 -11 -349 -11 -214 0 -326 -3 -340
-11 -40 -21 -40 -99 0 -120 12 -7 95 -11 219 -11 184 0 201 -2 225 -20 30 -25
33 -67 6 -100 l-19 -24 -392 0 -392 1 -19 23 c-27 34 -24 75 7 100 21 16 41
21 89 21 49 0 66 4 80 20 24 27 23 76 -1 101 -19 18 -35 20 -209 20 -208 0
-233 6 -260 59 -19 37 -19 63 0 100 22 42 48 53 145 58 68 3 89 8 108 25 28
26 28 59 0 92 l-23 26 -210 1 c-194 0 -213 2 -248 22 -97 53 -95 195 3 247 31
17 59 19 247 19 l212 0 20 26 c27 34 27 64 0 95 l-20 23 -357 2 c-221 1 -367
5 -382 11 -105 44 -111 202 -9 255 34 17 77 18 835 18 439 1 813 3 830 6 39 7
68 52 55 86 -21 56 33 53 -975 53 l-931 1 -37 22 c-93 58 -89 196 8 246 38 20
56 21 681 21 595 0 644 2 660 17 25 26 22 86 -6 109 -21 17 -53 18 -556 18
-506 -1 -537 0 -567 18 -43 25 -70 73 -70 128 -1 49 17 83 65 119 26 19 43 20
353 21 l326 1 24 27 c17 20 23 36 19 54 -9 55 -20 58 -223 63 -210 6 -227 11
-262 80 -35 68 -10 150 57 187 37 21 45 21 530 20 446 0 494 1 517 17 36 23
39 76 6 110 -17 17 -39 18 -377 18 -213 0 -371 3 -390 9 -60 19 -88 91 -58
149 30 59 20 58 710 58 519 0 635 -3 657 -14z"/>
<path d="M1705 1319 c-228 -35 -321 -317 -160 -484 111 -114 292 -114 409 0
145 143 86 407 -105 470 -62 21 -82 23 -144 14z"/>
</g>
</svg>
